<?xml version="1.0" ?><!DOCTYPE svg  PUBLIC '-//W3C//DTD SVG 1.1//EN'  'http://www.w3.org/Graphics/SVG/1.1/DTD/svg11.dtd'><svg id="Layer_1" style="enable-background:new 0 0 64 64;" version="1.1" viewBox="0 0 64 64" xml:space="preserve" xmlns="http://www.w3.org/2000/svg" xmlns:xlink="http://www.w3.org/1999/xlink"><style type="text/css">
	.st0{fill:#696969;}
</style><g><g id="Icon-Paperclip" transform="translate(127.000000, 380.000000)"><path class="st0" d="M-110.3-326c-2.4,0-4.6-0.9-6.3-2.6c-1.7-1.7-2.6-3.9-2.6-6.3c0-2.4,0.9-4.6,2.6-6.3l25.4-25.4     c4.6-4.6,12.2-4.6,16.8,0c2.2,2.2,3.5,5.2,3.5,8.4c0,3.2-1.2,6.1-3.5,8.4l-19,19l-2-2l19-19c3.5-3.5,3.5-9.3,0-12.8     c-3.5-3.5-9.3-3.5-12.8,0l-25.4,25.4c-1.2,1.1-1.8,2.7-1.8,4.3c0,1.6,0.6,3.2,1.8,4.3c2.4,2.4,6.2,2.4,8.6,0l19-19     c1.2-1.2,1.2-3.2,0-4.4c-1.2-1.2-3.2-1.2-4.4,0l-12.7,12.7l-2-2l12.7-12.7c2.3-2.3,6-2.3,8.3,0c2.3,2.3,2.3,6,0,8.3l-19,19     C-105.7-326.9-107.9-326-110.3-326" id="Fill-60"/></g></g></svg>
