<?xml version="1.0" ?><!DOCTYPE svg  PUBLIC '-//W3C//DTD SVG 1.0//EN'  'http://www.w3.org/TR/2001/REC-SVG-20010904/DTD/svg10.dtd'><svg height="16px" style="shape-rendering:geometricPrecision; text-rendering:geometricPrecision; image-rendering:optimizeQuality; fill-rule:evenodd; clip-rule:evenodd" version="1.0" viewBox="0 0 92471 92471" width="16px" xml:space="preserve" xmlns="http://www.w3.org/2000/svg" xmlns:xlink="http://www.w3.org/1999/xlink"><g id="Layer_x0020_1"><path fill="#E6C131" d="M52974 92471c-4492,0 -8985,0 -13477,0l-3126 -13004c-2330,-691 -4558,-1621 -6655,-2760l-11409 6987c-3177,-3177 -6353,-6353 -9530,-9530l6986 -11407c-1140,-2098 -2070,-4326 -2761,-6658l-13002 -3125c0,-4492 0,-8985 0,-13477l13002 -3125c691,-2331 1621,-4560 2761,-6657l-6986 -11408c3177,-3177 6353,-6353 9530,-9530l11409 6988c2097,-1140 4325,-2070 6655,-2761l3126 -13004c4492,0 8984,0 13476,0l3126 13004c2331,691 4559,1621 6656,2760l11409 -6987c3176,3177 6353,6353 9529,9530l-6985 11407c1140,2098 2070,4326 2761,6658l13002 3125c0,4492 0,8984 0,13476l-13003 3126c-691,2331 -1621,4560 -2761,6657l6987 11408c-3177,3176 -6353,6353 -9530,9529l-11409 -6987c-2098,1140 -4325,2070 -6655,2761l-3126 13004zm-6739 -67124c11537,0 20889,9352 20889,20888 0,11537 -9352,20889 -20889,20889 -11536,0 -20888,-9352 -20888,-20889 0,-11536 9352,-20888 20888,-20888z"/></g></svg>
