<svg height="16px" viewBox="0 0 384 384.24503" width="16px" xmlns="http://www.w3.org/2000/svg">
    <g fill="#507C5C">
        <path d="m329.332031 80.582031c-7.328125 4.933594-9.257812 14.878907-4.320312 22.207031 17.734375 26.304688 27.109375 57.152344 27.109375 89.214844 0 88.226563-71.773438 160-160 160-20.359375 0-40.230469-3.832031-58.765625-11.136718 7.144531-3.191407 11.078125-11.167969 8.871093-18.917969-2.417968-8.503907-11.289062-13.433594-19.769531-11.015625l-32.636719 9.28125c-4.089843 1.167968-7.546874 3.894531-9.609374 7.613281-2.0625 3.714844-2.570313 8.089844-1.402344 12.167969l9.371094 32.65625c2.015624 7.015625 8.414062 11.59375 15.367187 11.59375 1.464844 0 2.945313-.199219 4.421875-.625 6.523438-1.871094 10.898438-7.542969 11.480469-13.921875 22.882812 9.355469 47.457031 14.304687 72.671875 14.304687 105.867187 0 192-86.136718 192-192 0-38.460937-11.261719-75.503906-32.574219-107.101562-4.945313-7.335938-14.886719-9.265625-22.214844-4.320313zm0 0"/>
        <path d="m305.507812 45.085938-.960937-3.921876c-.144531-.574218-.3125-1.144531-.511719-1.6875l-6.960937-27.40625c-2.175781-8.554687-10.832031-13.761718-19.449219-11.570312-6.804688 1.730469-11.398438 7.59375-11.941406 14.21875-23.160156-9.609375-48.058594-14.71484375-73.5625-14.71484375-105.871094 0-192 86.13671875-192 191.99999975 0 38.464844 11.265625 75.496094 32.578125 107.105469 3.085937 4.582031 8.144531 7.054687 13.277343 7.054687 3.074219 0 6.1875-.878906 8.929688-2.734374 7.328125-4.9375 9.265625-14.878907 4.320312-22.207032-17.726562-26.304687-27.105468-57.152344-27.105468-89.21875 0-88.222656 71.777344-160 160-160 20.058594 0 39.679687 3.730469 58.035156 10.863282-6.738281 3.234374-10.488281 10.859374-8.570312 18.378906 1.839843 7.230468 8.351562 12.046875 15.496093 12.039062 1.304688 0 2.640625-.160156 3.96875-.503906l32.878907-8.398438c8.496093-2.167968 13.664062-10.777343 11.578124-19.296874zm0 0"/>
        <path d="m264.121094 208.003906c8.832031 0 16-7.167968 16-16 0-8.832031-7.167969-16-16-16h-18.328125c-1.09375-3.6875-2.574219-7.246094-4.40625-10.640625l12.929687-12.925781c6.246094-6.25 6.246094-16.375 0-22.625-6.25-6.246094-16.378906-6.246094-22.625 0l-12.921875 12.921875c-3.390625-1.832031-6.949219-3.3125-10.648437-4.410156v-18.320313c0-8.832031-7.167969-16-16-16-8.832032 0-16 7.167969-16 16v18.328125c-3.679688 1.097657-7.238282 2.570313-10.636719 4.410157l-12.929687-12.929688c-6.25-6.246094-16.375-6.246094-22.632813 0-6.246094 6.242188-6.246094 16.375 0 22.625l12.921875 12.925781c-1.832031 3.394531-3.3125 6.953125-4.410156 10.648438h-18.3125c-8.832032 0-16 7.167969-16 16s7.167968 16 16 16h18.328125c1.097656 3.679687 2.578125 7.242187 4.410156 10.640625l-12.929687 12.9375c-6.246094 6.246094-6.246094 16.382812 0 22.625 3.128906 3.125 7.21875 4.6875 11.3125 4.6875 4.097656 0 8.191406-1.5625 11.320312-4.6875l12.921875-12.921875c3.390625 1.832031 6.949219 3.3125 10.644531 4.40625v18.304687c0 8.832032 7.167969 16 16 16 8.832032 0 16-7.167968 16-16v-18.328125c3.691406-1.09375 7.25-2.574219 10.640625-4.40625l12.929688 12.925781c3.128906 3.128907 7.214843 4.691407 11.3125 4.691407 4.09375 0 8.183593-1.5625 11.3125-4.691407 6.246093-6.246093 6.246093-16.375 0-22.621093l-12.921875-12.921875c1.832031-3.390625 3.3125-6.953125 4.40625-10.648438zm-55.054688-33.070312c4.550782 4.597656 7.054688 10.664062 7.054688 17.070312 0 6.410156-2.503906 12.472656-6.925782 16.945313-9.199218 9.097656-25.066406 8.96875-34.007812.128906-4.5625-4.601563-7.066406-10.664063-7.066406-17.074219 0-6.40625 2.503906-12.472656 6.9375-16.941406 4.59375-4.554688 10.65625-7.058594 17.0625-7.058594 6.410156 0 12.472656 2.503906 16.945312 6.929688zm0 0"/>
    </g>
</svg>
